<svg xmlns="http://www.w3.org/2000/svg" width="24" height="24" viewBox="0 0 24 24"><path d="M 5.0722656 0 C 2.2623755 0 0 2.2623755 0 5.0722656 L 0 18.927734 C 0 21.737625 2.2623755 24 5.0722656 24 L 18.927734 24 C 21.737625 24 24 21.737625 24 18.927734 L 24 5.0722656 C 24 2.2623755 21.737625 0 18.927734 0 L 5.0722656 0 z M 11.958984 4 C 12.092472 3.998 12.225933 4.0524844 12.320312 4.1464844 L 18.667969 10.478516 L 18.517578 10.478516 C 18.779377 10.493316 19.003111 10.744059 18.988281 11.005859 C 18.973452 11.267659 18.722736 11.493516 18.460938 11.478516 C 18.330698 11.478016 18.201465 11.424031 18.109375 11.332031 L 17.96875 11.191406 L 17.96875 19.5 C 17.968724 19.7618 17.730542 20 17.46875 20 L 12.96875 20 L 12.96875 15 L 10.96875 15 L 10.96875 20 L 6.46875 20 C 6.2069578 20 5.9687762 19.7618 5.96875 19.5 L 5.96875 11.189453 L 5.8261719 11.332031 C 5.4577219 11.713531 4.7375735 10.989447 5.1210938 10.623047 L 11.615234 4.1464844 C 11.705465 4.0559844 11.831359 4 11.958984 4 z "/></svg>